# AST/ASF file generated using VICON BodyLanguage
# -----------------------------------------------
:version 1.10
:name VICON
:units
  mass 1.0
  length 0.45
  angle deg
:documentation
   .ast/.asf automatically generated from VICON data using
   VICON BodyBuilder and BodyLanguage model FoxedUp or BRILLIANT.MOD
:root
   order TX TY TZ RX RY RZ
   axis XYZ
   position 0 0 0  
   orientation 0 0 0 
:bonedata
  begin
     id 1 
     name lhipjoint
     direction 0.734343 -0.627749 0.258209 
     length 2.5437 
     axis 0 0 0  XYZ
  end
  begin
     id 2 
     name lfemur
     direction 0.34202 -0.939693 0  
     length 6.7391  
     axis 0 0 20  XYZ
    dof rx ry rz
    limits (-160.0 20.0)
           (-70.0 70.0)
           (-60.0 70.0)
  end
  begin
     id 3 
     name ltibia
     direction 0.34202 -0.939693 0   
     length 7.21536   
     axis 0 0 20   XYZ
    dof rx
    limits (-10.0 170.0)
  end
  begin
     id 4 
     name lfoot
     direction 0.0489572 -0.134509 0.989702   
     length 1.61313   
     axis -90 7.62852e-016 20   XYZ
    dof rx rz
    limits (-45.0 90.0)
           (-70.0 20.0)
  end
  begin
     id 5 
     name ltoes
     direction 1.53451e-011 -4.21692e-011 1   
     length 0.823104   
     axis -90 7.62852e-016 20   XYZ
    dof rx
    limits (-90.0 20.0)
  end
  begin
     id 6 
     name rhipjoint
     direction -0.746398 -0.615468 0.253157   
     length 2.59446  
     axis 0 0 0  XYZ 
  end
  begin
     id 7 
     name rfemur
     direction -0.34202 -0.939693 0   
     length 6.7075   
     axis 0 0 -20   XYZ
    dof rx ry rz
    limits (-160.0 20.0)
           (-70.0 70.0)
           (-70.0 60.0)
  end
  begin
     id 8 
     name rtibia
     direction -0.34202 -0.939693 0   
     length 7.27262   
     axis 0 0 -20   XYZ
    dof rx
    limits (-10.0 170.0)
 end
 begin
     id 9 
     name rfoot
     direction -0.0455203 -0.125066 0.991104   
     length 1.91095  
     axis -90 -7.62852e-016 -20   XYZ
    dof rx rz
    limits (-45.0 90.0)
           (-20.0 70.0)
  end
  begin
     id 10 
     name rtoes
     direction -1.53601e-011 -4.21913e-011 1   
     length 0.969037   
     axis -90 -7.62852e-016 -20   XYZ
    dof rx
    limits (-90.0 20.0)
  end
  begin
     id 11 
     name lowerback
     direction 0.0181546 0.999122 -0.0377542   
     length 1.99916   
     axis 0 0 0   XYZ
    dof rx ry rz
    limits (-20.0 45.0)
           (-30.0 30.0)
           (-30.0 30.0)
  end
  begin
     id 12 
     name upperback
     direction 0.0203486 0.99589 0.0882534   
     length 1.951   
     axis 0 0 0   XYZ
    dof rx ry rz
    limits (-20.0 45.0)
           (-30.0 30.0)
           (-30.0 30.0)
  end
  begin
     id 13 
     name thorax
     direction 0.0131685 0.994241 0.106355   
     length 1.97461   
     axis 0 0 0   XYZ
    dof rx ry rz
    limits (-20.0 45.0)
           (-30.0 30.0)
           (-30.0 30.0)
  end
  begin
     id 14 
     name lowerneck
     direction -0.0281395 0.999325 0.023617   
     length 1.7959   
     axis 0 0 0   XYZ
    dof rx ry rz
    limits (-20.0 45.0)
           (-30.0 30.0)
           (-30.0 30.0)
  end
  begin
     id 15 
     name upperneck
     direction 0.0288721 0.991984 -0.123019   
     length 1.79917   
     axis 0 0 0   XYZ
    dof rx ry rz
    limits (-20.0 45.0)
           (-30.0 30.0)
           (-30.0 30.0)
  end
  begin
     id 16
     name head
     direction 0.0133797 0.998944 -0.0439492  
     length 1.80902  
     axis 0 0 0   XYZ
    dof rx ry rz
    limits (-20.0 45.0)
           (-30.0 30.0)
           (-30.0 30.0)
  end
  begin
     id 17 
     name lclavicle
     direction 0.919195 0.377107 0.113449  
     length 3.17815  
     axis 0 0 0   XYZ
    dof ry rz
    limits (-20.0 10.0)
           (0.0 20.0)
  end
  begin
     id 18 
     name lhumerus
     direction 1 -4.48959e-011 2.13129e-027   
     length 4.84137   
     axis 180 -30 -90   XYZ
    dof rx ry rz
    limits (-60.0 90.0)
           (-90.0 90.0)
           (-90.0 90.0)
  end
  begin
     id 19
     name lradius
     direction 1 -4.48957e-011 -6.30627e-028   
     length 3.2452   
     axis 180 -30 -90   XYZ
    dof rx
    limits (-10.0 170.0)
  end
  begin
     id 20
     name lwrist
     direction 1 -4.4901e-011 9.13299e-027   
     length 1.6226   
     axis -6.84618e-015 90 90   XYZ
    dof ry
    limits (-180.0 0.0)
 end
  begin
     id 21 
     name lhand
     direction 1 -4.48816e-011 1.82293e-026   
     length 0.521221   
     axis -1.16502e-014 90 90   XYZ
    dof rx rz
    limits (-90.0 90.0)
           (-45.0 45.0)
  end
  begin
     id 22 
     name lfingers
     direction 1 -4.49108e-011 3.65687e-026   
     length 0.420221   
     axis -2.33008e-014 90 90   XYZ
    dof rx
    limits (0.0 90.0)
  end
  begin
     id 23
     name lthumb
     direction 0.707107 -6.34943e-011 0.707107   
     length 0.603356   
     axis -90 45 5.69224e-014   XYZ
    dof rx rz
    limits (-45.0 45.0)
           (-45.0 45.0)
  end
  begin
     id 24 
     name rclavicle
     direction -0.90847 0.38596 0.160368   
     length 3.12973  
     axis 0 0 0   XYZ 
    dof ry rz
    limits (-10.0 20.0)
           (-20.0 0.0)
  end
  begin
     id 25 
     name rhumerus
     direction -1 -4.48974e-011 4.47268e-028  
     length 4.72284   
     axis 180 30 90   XYZ
    dof rx ry rz
    limits (-90.0 60.0)
           (-90.0 90.0)
           (-90.0 90.0)
  end
  begin
     id 26 
     name rradius
     direction -1 -4.48969e-011 3.43203e-027   
     length 3.23459   
     axis 180 30 90   XYZ
    dof rx
    limits (-10.0 170.0)
  end
  begin
     id 27 
     name rwrist
     direction -1 -4.48969e-011 9.12911e-027   
     length 1.6173   
     axis -6.84618e-015 -90 -90   XYZ
    dof ry
    limits (-180.0 0.0)
  end
  begin
     id 28
     name rhand
     direction -1 -4.49194e-011 1.83006e-026   
     length 0.307416   
     axis -1.16502e-014 -90 -90   XYZ
    dof rx rz
    limits (-90.0 90.0)
           (-45.0 45.0)
  end
  begin
     id 29
     name rfingers
     direction -1 -4.48423e-011 3.63103e-026   
     length 0.247847   
     axis -2.33008e-014 -90 -90   XYZ
    dof rx
    limits (0.0 90.0)
  end
  begin
     id 30
     name rthumb
     direction -0.707107 -6.34802e-011 0.707107   
     length 0.35586   
     axis -90 -45 -5.69224e-014   XYZ
    dof rx rz
    limits (-45.0 45.0)
           (-45.0 45.0)
  end
:hierarchy
  begin
    root lhipjoint rhipjoint lowerback
    lhipjoint lfemur
    lfemur ltibia
    ltibia lfoot
    lfoot ltoes
    rhipjoint rfemur
    rfemur rtibia
    rtibia rfoot
    rfoot rtoes
    lowerback upperback
    upperback thorax
    thorax lowerneck lclavicle rclavicle
    lowerneck upperneck
    upperneck head
    lclavicle lhumerus
    lhumerus lradius
    lradius lwrist
    lwrist lhand lthumb
    lhand lfingers
    rclavicle rhumerus
    rhumerus rradius
    rradius rwrist
    rwrist rhand rthumb
    rhand rfingers
  end

#!OML:ASF H:\Terrain\Patient Classification 1\Animal1\Tuesday\Animal1.ASF
:FULLY-SPECIFIED
:DEGREES
241
root 6.31455 16.1921 -9.25634 12.6783 5.10334 -1.74829
lowerback 7.16699 1.66044 2.51532
upperback 2.55705 2.37523 -0.0833602
thorax -1.26945 1.193 -1.68727
lowerneck -4.42639 9.4109 1.17304
upperneck -13.5633 13.1705 3.02423
head -3.83149 6.42293 0.524229
rclavicle -1.16289e-014 -2.98177e-015
rhumerus 0.336886 2.02904 6.76437
rradius 27.3463
rwrist -45.0346
rhand -2.42616 11.877
rfingers 7.12502
rthumb 23.2646 -16.7375
lclavicle -1.16289e-014 -2.98177e-015
lhumerus 7.83884 3.95306 3.31382
lradius 28.1956
lwrist -10.8572
lhand 22.1964 51.6539
lfingers 7.12502
lthumb 46.5754 74.505
rfemur -25.7903 1.79644 20.2568
rtibia 34.6779
rfoot -16.7583 -30.2043
rtoes 8.4368
lfemur -33.5184 -4.36718 -7.09396
ltibia 31.6756
lfoot -12.06 5.57329
ltoes -23.9059
242
root 6.31184 16.1924 -9.25798 12.577 5.05784 -1.55961
lowerback 7.46842 1.48095 2.19809
upperback 2.44328 2.12625 0.0183332
thorax -1.58151 1.0626 -1.39767
lowerneck -4.71939 8.38241 0.398184
upperneck -13.2322 11.9433 4.7354
head -3.82723 5.79777 1.24892
rclavicle -1.28216e-014 7.15625e-015
rhumerus 0.919486 1.75897 6.58283
rradius 27.4018
rwrist -44.4316
rhand -2.04938 11.6719
rfingers 7.12502
rthumb 23.626 -16.8965
lclavicle -1.28216e-014 7.15625e-015
lhumerus 7.22366 3.77006 3.30713
lradius 28.3368
lwrist -10.8113
lhand 21.9356 51.7004
lfingers 7.12502
lthumb 46.3338 74.6547
rfemur -25.7326 1.60237 20.0738
rtibia 34.8142
rfoot -16.5209 -30.0503
rtoes 8.51295
lfemur -33.3837 -4.41164 -7.31494
ltibia 31.7075
lfoot -12.1109 5.46511
ltoes -23.071
243
root 6.30841 16.1903 -9.26006 12.5277 5.019 -1.41812
lowerback 7.63901 1.35117 1.96757
upperback 2.39561 1.9437 0.105053
thorax -1.74347 0.968973 -1.1698
lowerneck -4.90152 7.19062 -0.452838
upperneck -13.1182 10.5231 6.53125
head -3.89386 5.07593 2.03331
rclavicle -7.40473e-015 -9.44227e-015
rhumerus 1.40011 1.75944 6.57107
rradius 27.4141
rwrist -44.0956
rhand -1.81032 11.4726
rfingers 7.12502
rthumb 23.8553 -17.066
lclavicle -7.40473e-015 -9.44227e-015
lhumerus 6.77198 3.6004 3.29083
lradius 28.4226
lwrist -10.88
lhand 21.6696 51.4465
lfingers 7.12502
lthumb 46.0872 74.5046
rfemur -25.7548 1.44816 19.9525
rtibia 34.9453
rfoot -15.9309 -30.0557
rtoes 7.66928
lfemur -33.3044 -4.4847 -7.43231
ltibia 31.7169
lfoot -12.1956 5.40674
ltoes -22.4537
244
root 6.30573 16.186 -9.26594 12.5066 4.95702 -1.49755
lowerback 7.64326 1.27507 1.97971
upperback 2.43439 1.84577 0.216327
thorax -1.71249 0.9206 -1.05298
lowerneck -4.92678 5.89493 -1.25416
upperneck -13.2338 8.97913 8.30779
head -4.0216 4.28583 2.83037
rclavicle 4.41799e-014 -2.09718e-014
rhumerus 1.74444 2.34386 6.77461
rradius 27.5185
rwrist -44.4721
rhand -2.12805 12.0149
rfingers 7.12502
rthumb 23.5506 -16.5632
lclavicle 4.41799e-014 -2.09718e-014
lhumerus 6.34791 3.30348 3.15944
lradius 28.6246
lwrist -10.9221
lhand 21.6403 50.7484
lfingers 7.12502
lthumb 46.0599 73.8179
rfemur -25.8498 1.43266 20.052
rtibia 35.0882
rfoot -16.0695 -29.9611
rtoes 7.87897
lfemur -33.291 -4.42466 -7.33241
ltibia 31.7243
lfoot -12.1611 5.46808
ltoes -22.9717
245
root 6.30183 16.1821 -9.27196 12.4947 4.86164 -1.50887
lowerback 7.60475 1.17735 1.88001
upperback 2.50431 1.70977 0.344472
thorax -1.63043 0.853834 -0.851307
lowerneck -4.71029 4.56474 -2.43537
upperneck -13.8988 7.51436 10.6545
head -3.84882 3.47867 3.50416
rclavicle 2.65874e-014 9.93923e-015
rhumerus 2.18221 2.78927 6.94792
rradius 27.6518
rwrist -44.7726
rhand -2.29372 12.3078
rfingers 7.12502
rthumb 23.3917 -16.2907
lclavicle 2.65874e-014 9.93923e-015
lhumerus 5.75028 2.89182 2.97311
lradius 28.9631
lwrist -10.6832
lhand 21.7439 50.1914
lfingers 7.12502
lthumb 46.156 73.2207
rfemur -25.9653 1.35973 20.0871
rtibia 35.2385
rfoot -16.3143 -29.6858
rtoes 8.71706
lfemur -33.2849 -4.32215 -7.3289
ltibia 31.758
lfoot -12.1493 5.52649
ltoes -23.3961
246
root 6.29647 16.1776 -9.27534 12.4525 4.76822 -1.51958
lowerback 7.64107 1.0832 1.77663
upperback 2.53318 1.58093 0.492707
thorax -1.63154 0.789336 -0.630105
lowerneck -4.36222 3.13779 -3.49211
upperneck -14.2663 5.84139 12.6483
head -3.96348 2.59867 4.3494
rclavicle 1.70458e-014 1.78906e-015
rhumerus 2.56086 2.78114 7.00124
rradius 27.7362
rwrist -44.6223
rhand -1.85641 12.1916
rfingers 7.12502
rthumb 23.8111 -16.3528
lclavicle 1.70458e-014 1.78906e-015
lhumerus 5.24687 2.46222 2.90188
lradius 29.2413
lwrist -10.3909
lhand 21.5443 49.8635
lfingers 7.12502
lthumb 45.9709 72.9701
rfemur -26.0554 1.274 20.1221
rtibia 35.3901
rfoot -16.263 -29.4341
rtoes 8.94161
lfemur -33.2458 -4.16133 -7.33545
ltibia 31.7976
lfoot -12.2422 5.44072
ltoes -23.2831
247
root 6.2924 16.174 -9.27654 12.2957 4.68316 -1.4975
lowerback 7.73205 0.989722 1.65594
upperback 2.59557 1.45156 0.603152
thorax -1.62663 0.72484 -0.438587
lowerneck -3.94127 1.68418 -4.008
upperneck -14.5593 4.04923 14.1747
head -3.98777 1.64736 4.97238
rclavicle 1.46107e-014 -1.78906e-015
rhumerus 2.81658 2.5317 6.94212
rradius 27.8718
rwrist -44.2657
rhand -1.31603 12.532
rfingers 7.12502
rthumb 24.3293 -15.9439
lclavicle 1.46107e-014 -1.78906e-015
lhumerus 4.9271 2.24029 2.94564
lradius 29.3371
lwrist -10.2686
lhand 21.395 49.7746
lfingers 7.12502
lthumb 45.8323 72.9386
rfemur -25.975 1.18106 20.1155
rtibia 35.5219
rfoot -16.1252 -29.284
rtoes 8.80174
lfemur -33.0827 -4.03724 -7.39537
ltibia 31.878
lfoot -12.4023 5.35462
ltoes -23.2056
248
root 6.28942 16.1719 -9.28105 12.1413 4.56488 -1.40983
lowerback 7.79412 0.891304 1.46751
upperback 2.70963 1.30817 0.67294
thorax -1.55215 0.653957 -0.248265
lowerneck -3.61481 0.261885 -4.3631
upperneck -14.8016 2.26794 15.5614
head -3.94195 0.701193 5.52732
rclavicle 2.37548e-014 -1.70955e-014
rhumerus 3.15763 2.16127 6.79392
rradius 27.9391
rwrist -43.7526
rhand -1.22655 13.0357
rfingers 7.12502
rthumb 24.415 -15.4286
lclavicle 2.37548e-014 -1.70955e-014
lhumerus 4.58986 1.97552 2.89664
lradius 29.4006
lwrist -9.94323
lhand 21.5662 49.908
lfingers 7.12502
lthumb 45.9912 73.0062
rfemur -25.8919 1.08737 20.0339
rtibia 35.629
rfoot -15.8504 -29.2212
rtoes 7.98763
lfemur -32.9448 -3.91601 -7.54256
ltibia 32.0274
lfoot -12.4375 5.29971
ltoes -22.8187
249
root 6.28717 16.1648 -9.28666 12.1074 4.52494 -1.62968
lowerback 7.77076 0.779311 1.62767
upperback 2.75635 1.17391 0.839499
thorax -1.49316 0.587607 -0.153889
lowerneck -3.26229 -1.14015 -4.85539
upperneck -14.9402 0.492774 16.9674
head -3.83537 -0.235255 6.10861
rclavicle 1.13307e-014 4.96962e-015
rhumerus 3.63866 2.35566 6.85726
rradius 27.8887
rwrist -43.5937
rhand -1.35134 13.0829
rfingers 7.12502
rthumb 24.2954 -15.3975
lclavicle 1.13307e-014 4.96962e-015
lhumerus 4.18469 1.45236 2.75772
lradius 29.5515
lwrist -9.37343
lhand 21.5614 49.9363
lfingers 7.12502
lthumb 45.9868 73.0364
rfemur -25.9538 1.09333 20.2818
rtibia 35.7173
rfoot -15.8191 -29.2722
rtoes 7.18556
lfemur -33.0195 -3.70584 -7.3363
ltibia 32.1907
lfoot -12.3561 5.3186
ltoes -23.1243
250
root 6.28559 16.1557 -9.28784 12.1372 4.52251 -1.8838
lowerback 7.69062 0.643537 1.82346
upperback 2.76033 1.01071 1.0534
thorax -1.44731 0.506582 -0.0280136
lowerneck -2.85753 -2.50985 -5.39048
upperneck -15.066 -1.27404 18.1984
head -3.70147 -1.16218 6.63463
rclavicle 6.65929e-015 -9.74045e-015
rhumerus 4.12785 2.89796 7.1244
rradius 27.9574
rwrist -43.6287
rhand -1.27148 12.9313
rfingers 7.12502
rthumb 24.372 -15.5389
lclavicle 6.65929e-015 -9.74045e-015
lhumerus 3.6553 0.666976 2.56023
lradius 29.8027
lwrist -8.53607
lhand 21.3006 49.883
lfingers 7.12502
lthumb 45.7447 73.0831
rfemur -26.0603 1.08094 20.5686
rtibia 35.7918
rfoot -15.8947 -29.3833
rtoes 6.20588
lfemur -33.1699 -3.53565 -7.06299
ltibia 32.3494
lfoot -12.3775 5.3739
ltoes -24.349
251
root 6.28406 16.156 -9.28711 12.1548 4.40509 -1.76548
lowerback 7.63621 0.478767 1.60308
upperback 2.80488 0.777201 1.21342
thorax -1.37975 0.389627 0.281475
lowerneck -2.64817 -3.80193 -6.15755
upperneck -15.0201 -2.9706 19.4447
head -3.45194 -2.02885 7.18702
rclavicle -7.55382e-015 9.93923e-015
rhumerus 4.73091 3.24854 7.38303
rradius 28.1357
rwrist -43.3713
rhand -1.40629 13.0445
rfingers 7.12502
rthumb 24.2427 -15.443
lclavicle -7.55382e-015 9.93923e-015
lhumerus 2.87118 -0.357576 2.3356
lradius 30.1762
lwrist -7.56075
lhand 21.0599 50.0111
lfingers 7.12502
lthumb 45.5211 73.3024
rfemur -26.1408 1.12002 20.4217
rtibia 35.8814
rfoot -16.0429 -29.3791
rtoes 5.87375
lfemur -33.2147 -3.46494 -7.20284
ltibia 32.4934
lfoot -12.5098 5.33191
ltoes -24.4584
